<svg width="148" height="149" viewBox="0 0 148 149" fill="none" xmlns="http://www.w3.org/2000/svg">
<path d="M144.5 63.8C137.3 63 130.7 58.5 127.7 51.4C124.6 44.3 125.9 36.4 130.3 30.6C126.2 25.4 121.5 20.8 116.3 17C110.7 21.5 102.9 23 95.6999 20.1C88.4999 17.3 83.8 10.8 82.8 3.70002C76.4 2.90002 69.8 2.90002 63.3 4.00002C62.5 11.2 58 17.8 50.9 20.8C43.8 23.9 35.9 22.6 30.1 18.2C24.9 22.3 20.4 27 16.5 32.2C21.1 37.8 22.5 45.6 19.6 52.8C16.8 60 10.3 64.7 3.09996 65.7C2.29996 72.1 2.40001 78.7 3.40001 85.2C10.6 86 17.0999 90.5 20.1999 97.6C23.2999 104.7 22 112.6 17.6 118.4C21.7 123.6 26.4 128.1 31.6 132C37.3 127.4 45.1 126 52.3 128.9C59.5 131.7 64.1999 138.2 65.1999 145.4C71.5999 146.2 78.1999 146.1 84.6999 145.1C85.4999 137.9 90 131.4 97.1 128.3C104.2 125.2 112.1 126.4 117.8 130.8C123 126.7 127.6 122 131.4 116.8C126.8 111.1 125.4 103.3 128.3 96.1C131.1 88.9 137.6 84.2 144.7 83.2C145.6 76.9 145.5 70.4 144.5 63.8Z" fill="white"/>
<path d="M74 148.5C71 148.5 68 148.3 64.9 148L63 147.8L62.6999 145.9C61.7999 139.4 57.4 133.8 51.4 131.4C45.3 129 38.4 130 33.3 134.2L31.8 135.4L30.1999 134.2C24.7999 130.2 19.8999 125.5 15.6999 120.2L14.5 118.7L15.6999 117.1C19.6999 111.9 20.5 104.9 17.9 98.9001C15.3 92.9001 9.59996 88.7001 3.09996 88.0001L1.19994 87.8001L0.900012 85.9001C-0.0999878 79.3001 -0.200037 72.5001 0.599963 65.7001L0.800037 63.7001L2.69994 63.4001C9.19994 62.5001 14.7 58.2001 17.1 52.1001C19.5 46.0001 18.5 39.1001 14.3 34.0001L13.1 32.5001L14.3 30.9001C18.3 25.5001 23 20.6001 28.3 16.4001L29.8 15.2001L31.4 16.4001C36.6 20.4001 43.6 21.2001 49.6 18.6001C55.6 16.0001 59.8 10.4001 60.5 3.80006L60.6999 1.90006L62.6 1.60006C69.2 0.600058 76 0.500057 82.8 1.30006L84.6999 1.50006L85 3.40006C85.9 9.90006 90.2 15.4001 96.3 17.8001C102.4 20.2001 109.3 19.2001 114.4 15.1001L115.9 13.9001L117.5 15.0001C122.9 18.9001 127.8 23.7001 132 29.1001L133.2 30.6001L132 32.2001C128 37.4001 127.2 44.4001 129.8 50.4001C132.4 56.4001 138 60.6001 144.6 61.2001L146.5 61.4001L146.8 63.3001C147.8 69.9001 147.9 76.7001 147.1 83.5001L146.9 85.4001L145 85.7001C138.5 86.6001 133 91.0001 130.6 97.0001C128.2 103.1 129.3 110 133.4 115.1L134.6 116.6L133.4 118.2C129.4 123.7 124.6 128.5 119.3 132.7L117.8 133.9L116.2 132.7C111 128.7 104 127.9 98 130.5C92 133.1 87.8 138.7 87.1 145.2L86.9 147.1L85 147.4C81.5 148.2 77.8 148.5 74 148.5ZM67.4 143.1C72.5 143.6 77.6 143.5 82.5 142.9C84 135.4 89 129.1 96.1 126C103.1 122.9 111.3 123.6 117.7 127.7C121.6 124.5 125.1 120.8 128.2 116.9C123.9 110.6 123 102.5 125.9 95.3001C128.7 88.2001 134.9 82.9001 142.4 81.2001C142.9 76.1001 142.8 71.1001 142.2 66.1001C134.7 64.6001 128.3 59.6001 125.3 52.5001C122.3 45.4001 122.9 37.3001 127 30.9001C123.8 27.0001 120.1 23.4001 116.1 20.4001C109.8 24.6001 101.7 25.5001 94.6 22.7001C87.4 19.9001 82.2 13.7001 80.5 6.20006C75.4 5.70006 70.3 5.80006 65.4 6.40006C63.9 13.9001 58.8 20.3001 51.8 23.3001C44.7 26.3001 36.5999 25.7001 30.1999 21.6001C26.2999 24.8001 22.7999 28.5001 19.6999 32.5001C23.9999 38.8001 24.9 46.9001 22 54.0001C19.2 61.2001 12.9 66.4001 5.49999 68.1001C4.99999 73.2001 5.09994 78.3001 5.69994 83.2001C13.1999 84.7001 19.5 89.7001 22.6 96.8001C25.6 103.9 25 112 20.9 118.5C24.1 122.4 27.7999 125.9 31.6999 129C37.9999 124.7 46.1 123.8 53.3 126.7C60.5 129.4 65.7 135.7 67.4 143.1Z" fill="#505C6E"/>
<path d="M74 114.8C96.2018 114.8 114.2 96.8019 114.2 74.6C114.2 52.3982 96.2018 34.4 74 34.4C51.7982 34.4 33.8 52.3982 33.8 74.6C33.8 96.8019 51.7982 114.8 74 114.8Z" fill="#E9F1FE"/>
<path d="M68.7 88.9001L56.1 75.5001C55.2 74.5001 55.2 72.9001 56.2 72.0001C57.2 71.1001 58.8 71.1001 59.7 72.1001L68.7 81.7001L88 62.1001C89 61.1001 90.6 61.1001 91.5 62.1001C92.5 63.1001 92.5 64.7001 91.5 65.6001L68.7 88.9001Z" fill="#505C6E"/>
</svg>
