<svg width="156" height="158" viewBox="0 0 156 158" fill="none" xmlns="http://www.w3.org/2000/svg">
<path d="M136 47H1.8V27.1C1.8 22 5.9 17.9 11 17.9H126.8C131.9 17.9 136 22 136 27.1V47Z" fill="#E9F1FE"/>
<path d="M126.2 157.1H11.9C5.4 157.1 0 151.8 0 145.2V27.2001C0 20.7001 5.3 15.3 11.9 15.3H126.2C132.7 15.3 138.1 20.6001 138.1 27.2001V145.2C138.1 151.8 132.8 157.1 126.2 157.1ZM11.9 20.4C8.1 20.4 5 23.5 5 27.3V145.3C5 149.1 8.1 152.2 11.9 152.2H126.2C130 152.2 133.1 149.1 133.1 145.3V27.3C133.1 23.5 130 20.4 126.2 20.4H11.9V20.4Z" fill="#505C6E"/>
<path d="M133.3 52.9H133.1V62.3C118.8 62.4 103.7 50.9 103.6 36.5999C103.6 29.9 106.1 27.5 110.3 22.9L126.6 22.8C130.2 22.8 133.2 21.9 133.2 25.5L133.3 52.9Z" fill="#CFE2FD"/>
<path d="M23.5 28.5C22.1 28.5 21 27.4 21 26V9.59998C21 8.19998 22.1 7.09998 23.5 7.09998C24.9 7.09998 26 8.19998 26 9.59998V26C26 27.4 24.9 28.5 23.5 28.5Z" fill="#505C6E"/>
<path d="M69.1 28.5C67.7 28.5 66.6 27.4 66.6 26V9.59998C66.6 8.19998 67.7 7.09998 69.1 7.09998C70.5 7.09998 71.6 8.19998 71.6 9.59998V26C71.6 27.4 70.5 28.5 69.1 28.5Z" fill="#505C6E"/>
<path d="M114.7 28.5C113.3 28.5 112.2 27.4 112.2 26V9.59998C112.2 8.19998 113.3 7.09998 114.7 7.09998C116.1 7.09998 117.2 8.19998 117.2 9.59998V26C117.2 27.4 116 28.5 114.7 28.5Z" fill="#505C6E"/>
<path d="M134.7 46.1H1.6V48.1H134.7V46.1Z" fill="#505C6E"/>
<path d="M35.7 142.7C35.1 142.7 34.7 142.3 34.7 141.7V57.5C34.7 56.9 35.1 56.5 35.7 56.5C36.3 56.5 36.7 56.9 36.7 57.5V141.7C36.7 142.2 36.3 142.7 35.7 142.7Z" fill="#E9F1FE"/>
<path d="M69.1 142.7C68.5 142.7 68.1 142.3 68.1 141.7V57.5C68.1 56.9 68.5 56.5 69.1 56.5C69.7 56.5 70.1 56.9 70.1 57.5V141.7C70.1 142.2 69.6 142.7 69.1 142.7Z" fill="#E9F1FE"/>
<path d="M102.4 142.7C101.8 142.7 101.4 142.3 101.4 141.7V57.5C101.4 56.9 101.8 56.5 102.4 56.5C103 56.5 103.4 56.9 103.4 57.5V141.7C103.4 142.2 103 142.7 102.4 142.7Z" fill="#E9F1FE"/>
<path d="M123.5 84.7H14.6C14 84.7 13.6 84.3 13.6 83.7C13.6 83.1 14 82.7 14.6 82.7H123.5C124.1 82.7 124.5 83.1 124.5 83.7C124.5 84.3 124.1 84.7 123.5 84.7Z" fill="#E9F1FE"/>
<path d="M123.5 116.5H14.6C14 116.5 13.6 116.1 13.6 115.5C13.6 114.9 14 114.5 14.6 114.5H123.5C124.1 114.5 124.5 114.9 124.5 115.5C124.5 116.1 124.1 116.5 123.5 116.5Z" fill="#E9F1FE"/>
<path d="M40.8 112.2C40.5 112.2 40.3 112.1 40.1 111.9C39.7 111.5 39.7 110.9 40.1 110.5L63.3 87.3C63.7 86.9 64.3 86.9 64.7 87.3C65.1 87.7 65.1 88.3 64.7 88.7L41.5 111.9C41.3 112.1 41 112.2 40.8 112.2Z" fill="#505C6E"/>
<path d="M64 112.2C63.7 112.2 63.5 112.1 63.3 111.9L40.1 88.7C39.7 88.3 39.7 87.7 40.1 87.3C40.5 86.9 41.1 86.9 41.5 87.3L64.7 110.5C65.1 110.9 65.1 111.5 64.7 111.9C64.5 112.1 64.3 112.2 64 112.2Z" fill="#505C6E"/>
<path d="M129.3 51C142.665 51 153.5 40.1653 153.5 26.8C153.5 13.4347 142.665 2.59998 129.3 2.59998C115.935 2.59998 105.1 13.4347 105.1 26.8C105.1 40.1653 115.935 51 129.3 51Z" fill="white"/>
<path d="M129.3 53.4C114.6 53.4 102.6 41.4 102.6 26.7C102.6 12 114.6 0 129.3 0C144 0 156 12 156 26.7C156 41.5 144 53.4 129.3 53.4ZM129.3 5.1C117.4 5.1 107.6 14.8 107.6 26.8C107.6 38.7 117.3 48.5 129.3 48.5C141.3 48.5 151 38.7 151 26.8C151 14.8 141.3 5.1 129.3 5.1Z" fill="#505C6E"/>
<path d="M126.6 36.6L118.6 28.1C117.7 27.1 117.7 25.5 118.7 24.6C119.7 23.7 121.3 23.7 122.2 24.7L126.6 29.4L137.1 19C138.1 18 139.7 18 140.6 19C141.6 20 141.6 21.6 140.6 22.5L126.6 36.6Z" fill="#505C6E"/>
</svg>
