<svg width="125" height="260" viewBox="0 0 125 260" fill="none" xmlns="http://www.w3.org/2000/svg">
<path d="M62.3 65.4L52.8 55.9C51.8 54.9 51.8 53.3 52.8 52.4C53.8 51.4 55.4 51.4 56.3 52.4L62.3 58.4L68.3 52.4C69.3 51.4 70.9 51.4 71.8 52.4C72.8 53.4 72.8 55 71.8 55.9L62.3 65.4Z" fill="#505C6E"/>
<path d="M122 176.8V92.5C122 87.9 118.3 84.2 113.7 84.2H10.8C6.2 84.2 2.5 87.9 2.5 92.5V211.7C2.5 216.3 6.2 220 10.8 220H78.7C79.9 220 81.1 219.5 82 218.6L120.6 180C121.5 179.2 122 178.1 122 176.8Z" fill="white"/>
<path d="M43.6 220.1L81.3 181.7L79.4 185.8V220.1H43.6Z" fill="#E9F1FE"/>
<path d="M92.2 115.3H32.3C31.7 115.3 31.3 114.9 31.3 114.3C31.3 113.7 31.7 113.3 32.3 113.3H92.2C92.8 113.3 93.2 113.7 93.2 114.3C93.2 114.9 92.8 115.3 92.2 115.3Z" fill="#505C6E"/>
<path d="M92.2 134.8H32.3C31.7 134.8 31.3 134.4 31.3 133.8C31.3 133.2 31.7 132.8 32.3 132.8H92.2C92.8 132.8 93.2 133.2 93.2 133.8C93.2 134.4 92.8 134.8 92.2 134.8Z" fill="#505C6E"/>
<path d="M92.2 154.3H32.3C31.7 154.3 31.3 153.9 31.3 153.3C31.3 152.7 31.7 152.3 32.3 152.3H92.2C92.8 152.3 93.2 152.7 93.2 153.3C93.2 153.9 92.8 154.3 92.2 154.3Z" fill="#505C6E"/>
<path d="M81.5 120.7C85.0346 120.7 87.9 117.835 87.9 114.3C87.9 110.765 85.0346 107.9 81.5 107.9C77.9654 107.9 75.1 110.765 75.1 114.3C75.1 117.835 77.9654 120.7 81.5 120.7Z" fill="#E9F1FE"/>
<path d="M81.5 121.7C77.4 121.7 74.1 118.4 74.1 114.3C74.1 110.2 77.4 106.9 81.5 106.9C85.6 106.9 88.9 110.2 88.9 114.3C88.9 118.4 85.6 121.7 81.5 121.7ZM81.5 108.9C78.5 108.9 76.1 111.3 76.1 114.3C76.1 117.3 78.5 119.7 81.5 119.7C84.5 119.7 86.9 117.3 86.9 114.3C86.9 111.3 84.5 108.9 81.5 108.9Z" fill="#505C6E"/>
<path d="M44.8 140.2C48.3346 140.2 51.2 137.335 51.2 133.8C51.2 130.265 48.3346 127.4 44.8 127.4C41.2654 127.4 38.4 130.265 38.4 133.8C38.4 137.335 41.2654 140.2 44.8 140.2Z" fill="#E9F1FE"/>
<path d="M44.8 141.2C40.7 141.2 37.4 137.9 37.4 133.8C37.4 129.7 40.7 126.4 44.8 126.4C48.9 126.4 52.2 129.7 52.2 133.8C52.2 137.9 48.9 141.2 44.8 141.2ZM44.8 128.4C41.8 128.4 39.4 130.8 39.4 133.8C39.4 136.8 41.8 139.2 44.8 139.2C47.8 139.2 50.2 136.8 50.2 133.8C50.2 130.8 47.8 128.4 44.8 128.4Z" fill="#505C6E"/>
<path d="M63.5 159.7C67.0346 159.7 69.9 156.835 69.9 153.3C69.9 149.765 67.0346 146.9 63.5 146.9C59.9654 146.9 57.1 149.765 57.1 153.3C57.1 156.835 59.9654 159.7 63.5 159.7Z" fill="#E9F1FE"/>
<path d="M63.5 160.7C59.4 160.7 56.1 157.4 56.1 153.3C56.1 149.2 59.4 145.9 63.5 145.9C67.6 145.9 70.9 149.2 70.9 153.3C70.9 157.4 67.5 160.7 63.5 160.7ZM63.5 147.9C60.5 147.9 58.1 150.3 58.1 153.3C58.1 156.3 60.5 158.7 63.5 158.7C66.5 158.7 68.9 156.3 68.9 153.3C68.9 150.3 66.4 147.9 63.5 147.9Z" fill="#505C6E"/>
<path d="M79.4 220.5C78.7 220.5 78.1 219.9 78.1 219.2V185.7C78.1 180.4 82.4 176.1 87.7 176.1H120.5C121.2 176.1 121.8 176.7 121.8 177.4C121.8 178.1 121.2 178.7 120.5 178.7H87.7C83.8 178.7 80.7 181.9 80.7 185.7V219.2C80.7 219.9 80.1 220.5 79.4 220.5Z" fill="#505C6E"/>
<path d="M78.8 222.6H10.9C4.9 222.6 0 217.7 0 211.7V92.5C0 86.5 4.9 81.6 10.9 81.6H113.8C119.8 81.6 124.7 86.5 124.7 92.5V176.8C124.7 178.7 124 180.5 122.6 181.9L84 220.5C82.5 221.9 80.7 222.6 78.8 222.6ZM10.8 86.8C7.6 86.8 5 89.4 5 92.6V211.8C5 215 7.6 217.6 10.8 217.6H78.7C79.3 217.6 79.8 217.4 80.2 217L118.8 178.4C119.2 178 119.4 177.5 119.4 176.9V92.5C119.4 89.3 116.8 86.7 113.6 86.7H10.8V86.8Z" fill="#505C6E"/>
<path d="M62.45 260C61.65 260 60.95 259.3 60.95 258.5V246.5C60.95 245.7 61.65 245 62.45 245C63.25 245 63.95 245.7 63.95 246.5V258.5C63.95 259.3 63.35 260 62.45 260ZM62.45 236C61.65 236 60.95 235.3 60.95 234.5V222.5C60.95 221.7 61.65 221 62.45 221C63.25 221 63.95 221.7 63.95 222.5V234.5C63.95 235.3 63.35 236 62.45 236Z" fill="#505C6E"/>
<path d="M62.5 60.8C61.7 60.8 61 60.1 61 59.3V49.5C61 48.7 61.7 48 62.5 48C63.3 48 64 48.7 64 49.5V59.3C64 60.1 63.4 60.8 62.5 60.8ZM62.5 39C61.7 39 61 38.3 61 37.5V25.5C61 24.7 61.7 24 62.5 24C63.3 24 64 24.7 64 25.5V37.5C64 38.3 63.4 39 62.5 39ZM62.5 15C61.7 15 61 14.3 61 13.5V1.5C61 0.7 61.7 0 62.5 0C63.3 0 64 0.7 64 1.5V13.5C64 14.3 63.4 15 62.5 15Z" fill="#505C6E"/>
</svg>
