<svg width="149" height="231" viewBox="0 0 149 231" fill="none" xmlns="http://www.w3.org/2000/svg">
<path d="M74.25 65.4L64.75 55.9C63.75 54.9 63.75 53.3 64.75 52.4C65.75 51.4 67.35 51.4 68.25 52.4L74.25 58.4L80.25 52.4C81.25 51.4 82.85 51.4 83.75 52.4C84.75 53.4 84.75 55 83.75 55.9L74.25 65.4Z" fill="#505C6E"/>
<path d="M145 145.7C137.8 144.9 131.2 140.4 128.2 133.3C125.1 126.2 126.4 118.3 130.8 112.5C126.7 107.3 122 102.7 116.8 98.9C111.2 103.4 103.4 104.9 96.2 102C89 99.2 84.3 92.7 83.3 85.6C76.9 84.8 70.3 84.8 63.8 85.9C63 93.1 58.5 99.7 51.4 102.7C44.3 105.8 36.4 104.5 30.6 100.1C25.4 104.2 20.9 108.9 17 114.1C21.6 119.7 23 127.5 20.1 134.7C17.3 141.9 10.8 146.6 3.6 147.6C2.8 154 2.9 160.6 3.9 167.1C11.1 167.9 17.6 172.4 20.7 179.5C23.8 186.6 22.5 194.5 18.1 200.3C22.2 205.5 26.9 210 32.1 213.9C37.8 209.3 45.6 207.9 52.8 210.8C60 213.6 64.7 220.1 65.7 227.3C72.1 228.1 78.7 228 85.2 227C86 219.8 90.5 213.3 97.6 210.2C104.7 207.1 112.6 208.3 118.3 212.7C123.5 208.6 128.1 203.9 131.9 198.7C127.3 193 125.9 185.2 128.8 178C131.6 170.8 138.1 166.1 145.2 165.1C146.1 158.8 146 152.3 145 145.7Z" fill="white"/>
<path d="M74.5 230.4C71.5 230.4 68.5 230.2 65.4 229.9L63.5 229.7L63.2 227.8C62.3 221.3 57.9 215.7 51.9 213.3C45.8 210.9 38.9 211.9 33.8 216.1L32.3 217.3L30.7 216.1C25.3 212.1 20.4 207.4 16.2 202.1L15 200.6L16.2 199C20.2 193.8 21 186.8 18.4 180.8C15.8 174.8 10.1 170.6 3.6 169.9L1.7 169.7L1.4 167.8C0.400001 161.2 0.299998 154.4 1.1 147.6L1.3 145.6L3.2 145.3C9.7 144.4 15.2 140.1 17.6 134C20 127.9 19 121 14.8 115.9L13.6 114.4L14.8 112.8C18.8 107.4 23.5 102.5 28.8 98.3L30.3 97.1L31.9 98.3C37.1 102.3 44.1 103.1 50.1 100.5C56.1 97.9 60.3 92.3 61 85.7L61.2 83.8L63.1 83.5C69.7 82.5 76.5 82.4 83.3 83.2L85.2 83.4L85.5 85.3C86.4 91.8 90.7 97.3 96.8 99.7C102.9 102.1 109.8 101.1 114.9 97L116.4 95.8L118 96.9C123.4 100.8 128.3 105.6 132.5 111L133.7 112.5L132.5 114.1C128.5 119.3 127.7 126.3 130.3 132.3C132.9 138.3 138.5 142.5 145.1 143.1L147 143.3L147.3 145.2C148.3 151.8 148.4 158.6 147.6 165.4L147.4 167.3L145.5 167.6C139 168.5 133.5 172.9 131.1 178.9C128.7 185 129.8 191.9 133.9 197L135.1 198.5L133.9 200.1C129.9 205.6 125.1 210.4 119.8 214.6L118.3 215.8L116.7 214.6C111.5 210.6 104.5 209.8 98.5 212.4C92.5 215 88.3 220.6 87.6 227.1L87.4 229L85.5 229.3C82 230.1 78.3 230.4 74.5 230.4ZM67.9 225C73 225.5 78.1 225.4 83 224.8C84.5 217.3 89.5 211 96.6 207.9C103.6 204.8 111.8 205.5 118.2 209.6C122.1 206.4 125.6 202.7 128.7 198.8C124.4 192.5 123.5 184.4 126.4 177.2C129.2 170.1 135.4 164.8 142.9 163.1C143.4 158 143.3 153 142.7 148C135.2 146.5 128.8 141.5 125.8 134.4C122.8 127.3 123.4 119.2 127.5 112.8C124.3 108.9 120.6 105.3 116.6 102.3C110.3 106.5 102.2 107.4 95.1 104.6C87.9 101.8 82.7 95.6 81 88.1C75.9 87.6 70.8 87.7 65.9 88.3C64.4 95.8 59.3 102.2 52.3 105.2C45.2 108.2 37.1 107.6 30.7 103.5C26.8 106.7 23.3 110.4 20.2 114.4C24.5 120.7 25.4 128.8 22.5 135.9C19.7 143.1 13.4 148.3 6 150C5.5 155.1 5.6 160.2 6.2 165.1C13.7 166.6 20 171.6 23.1 178.7C26.1 185.8 25.5 193.9 21.4 200.4C24.6 204.3 28.3 207.8 32.2 210.9C38.5 206.6 46.6 205.7 53.8 208.6C61 211.3 66.2 217.6 67.9 225Z" fill="#505C6E"/>
<path d="M74.5 196.7C96.7018 196.7 114.7 178.702 114.7 156.5C114.7 134.298 96.7018 116.3 74.5 116.3C52.2982 116.3 34.3 134.298 34.3 156.5C34.3 178.702 52.2982 196.7 74.5 196.7Z" fill="#E9F1FE"/>
<path d="M69.2 170.8L56.6 157.4C55.7 156.4 55.7 154.8 56.7 153.9C57.7 153 59.3 153 60.2 154L69.2 163.6L88.5 144C89.5 143 91.1 143 92 144C93 145 93 146.6 92 147.5L69.2 170.8Z" fill="#505C6E"/>
<path d="M74.45 60.8C73.65 60.8 72.95 60.1 72.95 59.3V49.5C72.95 48.7 73.65 48 74.45 48C75.25 48 75.95 48.7 75.95 49.5V59.3C75.95 60.1 75.35 60.8 74.45 60.8ZM74.45 39C73.65 39 72.95 38.3 72.95 37.5V25.5C72.95 24.7 73.65 24 74.45 24C75.25 24 75.95 24.7 75.95 25.5V37.5C75.95 38.3 75.35 39 74.45 39ZM74.45 15C73.65 15 72.95 14.3 72.95 13.5V1.5C72.95 0.7 73.65 0 74.45 0C75.25 0 75.95 0.7 75.95 1.5V13.5C75.95 14.3 75.35 15 74.45 15Z" fill="#505C6E"/>
</svg>
