<svg width="125" height="142" viewBox="0 0 125 142" fill="none" xmlns="http://www.w3.org/2000/svg">
<path d="M122 95.7V11.4C122 6.79998 118.3 3.09998 113.7 3.09998H10.8C6.19999 3.09998 2.5 6.79998 2.5 11.4V130.6C2.5 135.2 6.19999 138.9 10.8 138.9H78.7C79.9 138.9 81.1 138.4 82 137.5L120.6 98.9C121.5 98.1 122 97 122 95.7Z" fill="white"/>
<path d="M43.6 139L81.3 100.6L79.4 104.7V139H43.6Z" fill="#E9F1FE"/>
<path d="M92.2 34.2001H32.3C31.7 34.2001 31.3 33.8001 31.3 33.2001C31.3 32.6001 31.7 32.2001 32.3 32.2001H92.2C92.8 32.2001 93.2 32.6001 93.2 33.2001C93.2 33.8001 92.8 34.2001 92.2 34.2001Z" fill="#505C6E"/>
<path d="M92.2 53.7001H32.3C31.7 53.7001 31.3 53.3001 31.3 52.7001C31.3 52.1001 31.7 51.7001 32.3 51.7001H92.2C92.8 51.7001 93.2 52.1001 93.2 52.7001C93.2 53.3001 92.8 53.7001 92.2 53.7001Z" fill="#505C6E"/>
<path d="M92.2 73.2001H32.3C31.7 73.2001 31.3 72.8001 31.3 72.2001C31.3 71.6001 31.7 71.2001 32.3 71.2001H92.2C92.8 71.2001 93.2 71.6001 93.2 72.2001C93.2 72.8001 92.8 73.2001 92.2 73.2001Z" fill="#505C6E"/>
<path d="M81.5 39.6C85.0346 39.6 87.9 36.7347 87.9 33.2001C87.9 29.6654 85.0346 26.8 81.5 26.8C77.9654 26.8 75.1 29.6654 75.1 33.2001C75.1 36.7347 77.9654 39.6 81.5 39.6Z" fill="#E9F1FE"/>
<path d="M81.5 40.6C77.4 40.6 74.1 37.3001 74.1 33.2001C74.1 29.1001 77.4 25.8 81.5 25.8C85.6 25.8 88.9 29.1001 88.9 33.2001C88.9 37.3001 85.6 40.6 81.5 40.6ZM81.5 27.8C78.5 27.8 76.1 30.2001 76.1 33.2001C76.1 36.2001 78.5 38.6 81.5 38.6C84.5 38.6 86.9 36.2001 86.9 33.2001C86.9 30.2001 84.5 27.8 81.5 27.8Z" fill="#505C6E"/>
<path d="M44.8 59.1C48.3346 59.1 51.2 56.2347 51.2 52.7C51.2 49.1654 48.3346 46.3 44.8 46.3C41.2654 46.3 38.4 49.1654 38.4 52.7C38.4 56.2347 41.2654 59.1 44.8 59.1Z" fill="#E9F1FE"/>
<path d="M44.8 60.1C40.7 60.1 37.4 56.8 37.4 52.7C37.4 48.6 40.7 45.3 44.8 45.3C48.9 45.3 52.2 48.6 52.2 52.7C52.2 56.8 48.9 60.1 44.8 60.1ZM44.8 47.3C41.8 47.3 39.4 49.7 39.4 52.7C39.4 55.7 41.8 58.1 44.8 58.1C47.8 58.1 50.2 55.7 50.2 52.7C50.2 49.7 47.8 47.3 44.8 47.3Z" fill="#505C6E"/>
<path d="M63.5 78.6C67.0346 78.6 69.9 75.7347 69.9 72.2C69.9 68.6654 67.0346 65.8 63.5 65.8C59.9654 65.8 57.1 68.6654 57.1 72.2C57.1 75.7347 59.9654 78.6 63.5 78.6Z" fill="#E9F1FE"/>
<path d="M63.5 79.6C59.4 79.6 56.1 76.3 56.1 72.2C56.1 68.1 59.4 64.8 63.5 64.8C67.6 64.8 70.9 68.1 70.9 72.2C70.9 76.3 67.5 79.6 63.5 79.6ZM63.5 66.8C60.5 66.8 58.1 69.2 58.1 72.2C58.1 75.2 60.5 77.6 63.5 77.6C66.5 77.6 68.9 75.2 68.9 72.2C68.9 69.2 66.4 66.8 63.5 66.8Z" fill="#505C6E"/>
<path d="M79.4 139.4C78.7 139.4 78.1 138.8 78.1 138.1V104.6C78.1 99.3 82.4 95 87.7 95H120.5C121.2 95 121.8 95.6 121.8 96.3C121.8 97 121.2 97.6 120.5 97.6H87.7C83.8 97.6 80.7 100.8 80.7 104.6V138.1C80.7 138.8 80.1 139.4 79.4 139.4Z" fill="#505C6E"/>
<path d="M78.8 141.5H10.9C4.90002 141.5 0 136.6 0 130.6V11.4C0 5.4 4.90002 0.5 10.9 0.5H113.8C119.8 0.5 124.7 5.4 124.7 11.4V95.7C124.7 97.6 124 99.4 122.6 100.8L84 139.4C82.5 140.8 80.7 141.5 78.8 141.5ZM10.8 5.7C7.59999 5.7 5 8.3 5 11.5V130.7C5 133.9 7.59999 136.5 10.8 136.5H78.7C79.3 136.5 79.8 136.3 80.2 135.9L118.8 97.3C119.2 96.9 119.4 96.4 119.4 95.8V11.4C119.4 8.2 116.8 5.6 113.6 5.6H10.8V5.7Z" fill="#505C6E"/>
</svg>
