<svg width="378" height="21" viewBox="0 0 378 21" fill="none" xmlns="http://www.w3.org/2000/svg">
<path d="M369.9 11.8H362.1C361.3 11.8 360.6 11.1 360.6 10.3C360.6 9.50005 361.3 8.80005 362.1 8.80005H369.9C370.7 8.80005 371.4 9.50005 371.4 10.3C371.4 11.1 370.7 11.8 369.9 11.8ZM350.1 11.8H338.1C337.3 11.8 336.6 11.1 336.6 10.3C336.6 9.50005 337.3 8.80005 338.1 8.80005H350.1C350.9 8.80005 351.6 9.50005 351.6 10.3C351.6 11.1 350.9 11.8 350.1 11.8ZM326.1 11.8H314.1C313.3 11.8 312.6 11.1 312.6 10.3C312.6 9.50005 313.3 8.80005 314.1 8.80005H326.1C326.9 8.80005 327.6 9.50005 327.6 10.3C327.6 11.1 326.9 11.8 326.1 11.8ZM302.1 11.8H290.1C289.3 11.8 288.6 11.1 288.6 10.3C288.6 9.50005 289.3 8.80005 290.1 8.80005H302.1C302.9 8.80005 303.6 9.50005 303.6 10.3C303.6 11.1 302.9 11.8 302.1 11.8ZM278.1 11.8H266.1C265.3 11.8 264.6 11.1 264.6 10.3C264.6 9.50005 265.3 8.80005 266.1 8.80005H278.1C278.9 8.80005 279.6 9.50005 279.6 10.3C279.6 11.1 278.9 11.8 278.1 11.8ZM254.1 11.8H242.1C241.3 11.8 240.6 11.1 240.6 10.3C240.6 9.50005 241.3 8.80005 242.1 8.80005H254.1C254.9 8.80005 255.6 9.50005 255.6 10.3C255.6 11.1 254.9 11.8 254.1 11.8ZM230.1 11.8H218.1C217.3 11.8 216.6 11.1 216.6 10.3C216.6 9.50005 217.3 8.80005 218.1 8.80005H230.1C230.9 8.80005 231.6 9.50005 231.6 10.3C231.6 11.1 230.9 11.8 230.1 11.8ZM206.1 11.8H194.1C193.3 11.8 192.6 11.1 192.6 10.3C192.6 9.50005 193.3 8.80005 194.1 8.80005H206.1C206.9 8.80005 207.6 9.50005 207.6 10.3C207.6 11.1 206.9 11.8 206.1 11.8ZM182.1 11.8H170.1C169.3 11.8 168.6 11.1 168.6 10.3C168.6 9.50005 169.3 8.80005 170.1 8.80005H182.1C182.9 8.80005 183.6 9.50005 183.6 10.3C183.6 11.1 182.9 11.8 182.1 11.8ZM158.1 11.8H146.1C145.3 11.8 144.6 11.1 144.6 10.3C144.6 9.50005 145.3 8.80005 146.1 8.80005H158.1C158.9 8.80005 159.6 9.50005 159.6 10.3C159.6 11.1 158.9 11.8 158.1 11.8ZM134.1 11.8H122.1C121.3 11.8 120.6 11.1 120.6 10.3C120.6 9.50005 121.3 8.80005 122.1 8.80005H134.1C134.9 8.80005 135.6 9.50005 135.6 10.3C135.6 11.1 134.9 11.8 134.1 11.8ZM110.1 11.8H98.1C97.3 11.8 96.6 11.1 96.6 10.3C96.6 9.50005 97.3 8.80005 98.1 8.80005H110.1C110.9 8.80005 111.6 9.50005 111.6 10.3C111.6 11.1 110.9 11.8 110.1 11.8ZM86.1 11.8H74.1C73.3 11.8 72.6 11.1 72.6 10.3C72.6 9.50005 73.3 8.80005 74.1 8.80005H86.1C86.9 8.80005 87.6 9.50005 87.6 10.3C87.6 11.1 86.9 11.8 86.1 11.8ZM62.1 11.8H50.1C49.3 11.8 48.6 11.1 48.6 10.3C48.6 9.50005 49.3 8.80005 50.1 8.80005H62.1C62.9 8.80005 63.6 9.50005 63.6 10.3C63.6 11.1 62.9 11.8 62.1 11.8ZM38.1 11.8H26.1C25.3 11.8 24.6 11.1 24.6 10.3C24.6 9.50005 25.3 8.80005 26.1 8.80005H38.1C38.9 8.80005 39.6 9.50005 39.6 10.3C39.6 11.1 38.9 11.8 38.1 11.8ZM14.1 11.8H2.10001C1.30001 11.8 0.600006 11.1 0.600006 10.3C0.600006 9.50005 1.30001 8.80005 2.10001 8.80005H14.1C14.9 8.80005 15.6 9.50005 15.6 10.3C15.6 11.1 14.9 11.8 14.1 11.8Z" fill="#505C6E"/>
<path d="M366 20.5C365.4 20.5 364.7 20.3 364.2 19.8C363.2 18.8 363.2 17.2 364.2 16.3L370.2 10.3L364.2 4.30005C363.2 3.30005 363.2 1.70005 364.2 0.800049C365.2 -0.199951 366.8 -0.199951 367.7 0.800049L377.2 10.3L367.7 19.8C367.3 20.3 366.7 20.5 366 20.5Z" fill="#505C6E"/>
</svg>
