<svg width="157" height="195" viewBox="0 0 157 195" fill="none" xmlns="http://www.w3.org/2000/svg">
<path d="M135.8 27.3V145.3C135.8 150.5 131.6 154.7 126.4 154.7H12.1C6.89999 154.7 2.7 150.5 2.7 145.3V27.3C2.7 22.1 6.89999 17.9 12.1 17.9H126.4C131.6 17.9 135.8 22.1 135.8 27.3Z" fill="white"/>
<path d="M136.2 47.1H2V27.2C2 22.1 6.1 18 11.2 18H127C132.1 18 136.2 22.1 136.2 27.2V47.1Z" fill="#E9F1FE"/>
<path d="M126.4 157.2H12.1C5.59999 157.2 0.199997 151.9 0.199997 145.3V27.3C0.199997 20.8 5.49999 15.4 12.1 15.4H126.4C132.9 15.4 138.3 20.7 138.3 27.3V145.3C138.3 151.9 133 157.2 126.4 157.2ZM12.1 20.5C8.29999 20.5 5.2 23.6 5.2 27.4V145.4C5.2 149.2 8.29999 152.3 12.1 152.3H126.4C130.2 152.3 133.3 149.2 133.3 145.4V27.4C133.3 23.6 130.2 20.5 126.4 20.5H12.1Z" fill="#505C6E"/>
<path d="M133.5 53H133.3V62.4C119 62.5 103.9 51 103.8 36.7C103.8 30 106.3 27.6 110.5 23L126.8 22.9C130.4 22.9 133.4 22 133.4 25.6L133.5 53Z" fill="#CFE2FD"/>
<path d="M23.7 28.6C22.3 28.6 21.2 27.5 21.2 26.1V9.70001C21.2 8.30001 22.3 7.20001 23.7 7.20001C25.1 7.20001 26.2 8.30001 26.2 9.70001V26.1C26.2 27.5 25.1 28.6 23.7 28.6Z" fill="#505C6E"/>
<path d="M69.3 28.6C67.9 28.6 66.8 27.5 66.8 26.1V9.70001C66.8 8.30001 67.9 7.20001 69.3 7.20001C70.7 7.20001 71.8 8.30001 71.8 9.70001V26.1C71.8 27.5 70.7 28.6 69.3 28.6Z" fill="#505C6E"/>
<path d="M114.9 28.6C113.5 28.6 112.4 27.5 112.4 26.1V9.70001C112.4 8.30001 113.5 7.20001 114.9 7.20001C116.3 7.20001 117.4 8.30001 117.4 9.70001V26.1C117.4 27.5 116.2 28.6 114.9 28.6Z" fill="#505C6E"/>
<path d="M134.9 46.2H1.8V48.2H134.9V46.2Z" fill="#505C6E"/>
<path d="M35.9 142.8C35.3 142.8 34.9 142.4 34.9 141.8V57.6C34.9 57 35.3 56.6 35.9 56.6C36.5 56.6 36.9 57 36.9 57.6V141.8C36.9 142.3 36.5 142.8 35.9 142.8Z" fill="#E9F1FE"/>
<path d="M69.3 142.8C68.7 142.8 68.3 142.4 68.3 141.8V57.6C68.3 57 68.7 56.6 69.3 56.6C69.9 56.6 70.3 57 70.3 57.6V141.8C70.3 142.3 69.8 142.8 69.3 142.8Z" fill="#E9F1FE"/>
<path d="M102.6 142.8C102 142.8 101.6 142.4 101.6 141.8V57.6C101.6 57 102 56.6 102.6 56.6C103.2 56.6 103.6 57 103.6 57.6V141.8C103.6 142.3 103.2 142.8 102.6 142.8Z" fill="#E9F1FE"/>
<path d="M123.7 84.8H14.8C14.2 84.8 13.8 84.4 13.8 83.8C13.8 83.2 14.2 82.8 14.8 82.8H123.7C124.3 82.8 124.7 83.2 124.7 83.8C124.7 84.4 124.3 84.8 123.7 84.8Z" fill="#E9F1FE"/>
<path d="M123.7 116.6H14.8C14.2 116.6 13.8 116.2 13.8 115.6C13.8 115 14.2 114.6 14.8 114.6H123.7C124.3 114.6 124.7 115 124.7 115.6C124.7 116.2 124.3 116.6 123.7 116.6Z" fill="#E9F1FE"/>
<path d="M41 112.3C40.7 112.3 40.5 112.2 40.3 112C39.9 111.6 39.9 111 40.3 110.6L63.5 87.4C63.9 87 64.5 87 64.9 87.4C65.3 87.8 65.3 88.4 64.9 88.8L41.7 112C41.5 112.2 41.2 112.3 41 112.3Z" fill="#505C6E"/>
<path d="M64.2 112.3C63.9 112.3 63.7 112.2 63.5 112L40.3 88.8C39.9 88.4 39.9 87.8 40.3 87.4C40.7 87 41.3 87 41.7 87.4L64.9 110.6C65.3 111 65.3 111.6 64.9 112C64.7 112.2 64.5 112.3 64.2 112.3Z" fill="#505C6E"/>
<path d="M129.5 51.1C142.865 51.1 153.7 40.2653 153.7 26.9C153.7 13.5347 142.865 2.70001 129.5 2.70001C116.135 2.70001 105.3 13.5347 105.3 26.9C105.3 40.2653 116.135 51.1 129.5 51.1Z" fill="white"/>
<path d="M129.5 53.5C114.8 53.5 102.8 41.5 102.8 26.8C102.8 12.1 114.8 0.100006 129.5 0.100006C144.2 0.100006 156.2 12.1 156.2 26.8C156.2 41.6 144.2 53.5 129.5 53.5ZM129.5 5.20001C117.6 5.20001 107.8 14.9 107.8 26.9C107.8 38.8 117.5 48.6 129.5 48.6C141.5 48.6 151.2 38.8 151.2 26.9C151.2 14.9 141.5 5.20001 129.5 5.20001Z" fill="#505C6E"/>
<path d="M126.8 36.7L118.8 28.2C117.9 27.2 117.9 25.6 118.9 24.7C119.9 23.8 121.5 23.8 122.4 24.8L126.8 29.5L137.3 19.1C138.3 18.1 139.9 18.1 140.8 19.1C141.8 20.1 141.8 21.7 140.8 22.6L126.8 36.7Z" fill="#505C6E"/>
<path d="M69.5 195C68.7 195 68 194.3 68 193.5V181.5C68 180.7 68.7 180 69.5 180C70.3 180 71 180.7 71 181.5V193.5C71 194.3 70.4 195 69.5 195ZM69.5 171C68.7 171 68 170.3 68 169.5V157.5C68 156.7 68.7 156 69.5 156C70.3 156 71 156.7 71 157.5V169.5C71 170.3 70.4 171 69.5 171Z" fill="#505C6E"/>
</svg>
