<?xml version="1.0" encoding="utf-8"?>
<!-- Generator: Adobe Illustrator 24.3.0, SVG Export Plug-In . SVG Version: 6.00 Build 0)  -->
<svg version="1.1" id="Layer_1" xmlns="http://www.w3.org/2000/svg" xmlns:xlink="http://www.w3.org/1999/xlink" x="0px" y="0px"
	 viewBox="0 0 1364.2 213.6" style="enable-background:new 0 0 1364.2 213.6;" xml:space="preserve">
<style type="text/css">
	.st0{fill:#0E1F3E;}
</style>
<g>
	<path class="st0" d="M359.5,77l-30.7,72h22l4.3-11.5h29.1l4.2,11.5h22.8l-29.7-72H359.5z M361.1,121.9l8.8-23.5l8.6,23.5H361.1z"/>
	<polygon class="st0" points="457.7,116.9 440.4,77 417.5,77 417.5,149 436.3,149 436.3,106.4 450.8,141.9 464.7,141.9 479.2,106.4 
		479.3,149 498,149 498,77 475.1,77 	"/>
	<polygon class="st0" points="532.5,121.2 566.5,121.2 566.5,104.7 532.5,104.7 532.5,93.4 570,93.4 570,77 511.2,77 511.2,149 
		571,149 571,132.6 532.5,132.6 	"/>
	<path class="st0" d="M646.3,102.6c0-16.3-11.1-25.6-30.4-25.6h-33.6v72h21.4v-19.4H615l9.6,19.4h24.2l-14.6-23.5
		C642,121.1,646.3,113.3,646.3,102.6z M615.9,113.2h-12.2V93.4h12.2c6.4,0,10.1,3.5,10.1,9.8C626,109.7,622.3,113.2,615.9,113.2z"/>
	<rect x="657.8" y="77" class="st0" width="21.4" height="72"/>
	<path class="st0" d="M744.4,122.9c-4.9,5-11.6,8.3-17.2,8.3c-9.8,0-17.2-8-17.2-18.6c0-10.6,7.4-18.5,17.2-18.5
		c6,0,12.6,3.8,17.2,9.6l12.3-14.6c-7.3-7.8-18.9-12.7-29.8-12.7c-22.3,0-38.7,15.5-38.7,36.5c0,21.3,16.1,37.1,38,37.1
		c10.9,0,22.7-5.4,30.5-13.9L744.4,122.9z"/>
	<path class="st0" d="M787.2,77l-30.7,72h22l4.3-11.5h29.1L816,149h22.8l-29.7-72H787.2z M788.7,121.9l8.8-23.5l8.6,23.5H788.7z"/>
	<polygon class="st0" points="893.9,117.3 863.4,77 845.1,77 845.1,149 864.7,149 864.7,109 895.2,149 913.4,149 913.4,77 893.9,77 
			"/>
	<path class="st0" d="M976.9,92.8c6.1,0,16.5,3.8,23.9,8l7.9-16.4c-7.8-5-19.1-8.3-30.1-8.3c-18,0-29.8,8.8-29.8,22.7
		c0,25.4,37.6,18.5,37.6,29.4c0,3.3-2.9,4.8-7.4,4.8c-7.4,0-19.4-4.7-26.8-11l-8,16.2c9,7.1,22.4,11.4,34.6,11.4
		c16.1,0,29.7-7.3,29.7-22.6c0-26-37.6-19.7-37.6-30.3C970.9,94.1,973.3,92.8,976.9,92.8z"/>
	<path class="st0" d="M1052.5,76.4c-22.6,0-39.2,15.4-39.2,36.6c0,21.3,16.6,37,39.2,37s39.2-15.8,39.2-37
		C1091.7,91.9,1075.1,76.4,1052.5,76.4z M1052.8,132.1c-9.5,0-17.7-8.1-17.7-19c0-10.9,8.1-18.8,17.7-18.8c9.5,0,17.1,7.9,17.1,18.8
		C1069.9,124,1062.3,132.1,1052.8,132.1z"/>
	<polygon class="st0" points="1122.1,77 1100.8,77 1100.8,149 1152.3,149 1152.3,131.1 1122.1,131.1 	"/>
	<path class="st0" d="M1184.7,77l-30.7,72h22l4.3-11.5h29.1l4.2,11.5h22.8l-29.7-72H1184.7z M1186.2,121.9l8.8-23.5l8.6,23.5H1186.2
		z"/>
	<path class="st0" d="M1294.5,125.5c7.8-4.4,12.1-12.2,12.1-22.9c0-16.3-11.1-25.6-30.4-25.6h-33.6v72h21.4v-19.4h11.3l9.6,19.4
		h24.2L1294.5,125.5z M1276.2,113.2H1264V93.4h12.2c6.4,0,10.1,3.5,10.1,9.8C1286.3,109.7,1282.6,113.2,1276.2,113.2z"/>
	<polygon class="st0" points="161.1,156.3 267.1,179.8 267.1,155 161.1,131.6 	"/>
	<polygon class="st0" points="161.1,57.2 267.1,80.7 267.1,55.9 161.1,32.5 	"/>
	<polygon class="st0" points="161.1,57.2 55.1,33.9 55.1,108.1 161.1,131.5 161.1,106.7 267.1,130.2 267.1,105.5 161.1,82 	"/>
	<polygon class="st0" points="55.1,157.6 161.1,181.1 161.1,156.3 55.1,132.8 	"/>
</g>
</svg>
